<svg width="16" height="16" viewBox="0 0 16 16" fill="none" xmlns="http://www.w3.org/2000/svg">
<path fill-rule="evenodd" clip-rule="evenodd" d="M8 0C5.82667 0 5.556 0.00933333 4.70133 0.0493333C1.79467 0.182667 0.181333 1.79467 0.048 4.70133C0.00933333 5.556 0 5.828 0 8C0 10.1733 0.00933333 10.4453 0.048 11.2987C0.181333 14.204 1.79467 15.8187 4.70133 15.952C5.556 15.9907 5.82667 16 8 16C10.1733 16 10.4453 15.9907 11.3 15.952C14.2013 15.8187 15.8213 14.2067 15.952 11.2987C15.9907 10.4453 16 10.1733 16 8C16 5.828 15.9907 5.556 15.952 4.70133C15.8213 1.79867 14.2067 0.181333 11.3 0.0493333C10.4453 0.00933333 10.1733 0 8 0ZM8 1.44267C10.136 1.44267 10.3893 1.45067 11.2333 1.48933C13.4027 1.588 14.4133 2.616 14.5133 4.768C14.5507 5.612 14.5587 5.864 14.5587 8C14.5587 10.136 14.5507 10.3893 14.5133 11.232C14.4133 13.3827 13.404 14.4133 11.2333 14.512C10.3893 14.5493 10.1373 14.5587 8 14.5587C5.864 14.5587 5.61067 14.5507 4.768 14.512C2.59467 14.412 1.588 13.38 1.488 11.232C1.45067 10.3893 1.44133 10.136 1.44133 8C1.44133 5.864 1.45067 5.61067 1.488 4.768C1.58667 2.61467 2.59733 1.58667 4.768 1.488C5.61067 1.44933 5.864 1.44267 8 1.44267ZM3.892 8C3.892 5.73067 5.732 3.892 8 3.892C10.268 3.892 12.108 5.732 12.108 8C12.108 10.2693 10.268 12.108 8 12.108C5.732 12.108 3.892 10.2693 3.892 8ZM8 10.6667C6.52667 10.6667 5.33333 9.47333 5.33333 8C5.33333 6.528 6.52667 5.33333 8 5.33333C9.472 5.33333 10.668 6.52667 10.668 8C10.668 9.47333 9.472 10.6667 8 10.6667ZM11.3093 3.73067C11.3093 3.2 11.74 2.77067 12.2693 2.77067C12.8013 2.77067 13.2307 3.2 13.2307 3.73067C13.2307 4.26133 12.8 4.69067 12.2693 4.69067C11.7387 4.69067 11.3093 4.26 11.3093 3.73067Z" fill="white"/>
</svg>
