<svg width="152" height="48" viewBox="0 0 152 48" fill="none" xmlns="http://www.w3.org/2000/svg">
<g clip-path="url(#clip0_0_4)">
<path d="M62.66 32L67.076 14.276H72.968L77.36 32H73.544L70.016 16.544H70.04L66.476 32H62.66ZM65.828 27.896V24.992H74.228V27.896H65.828ZM88.2793 30.488C89.0633 30.568 89.7473 30.72 90.3313 30.944C90.9233 31.16 91.3833 31.484 91.7113 31.916C92.0393 32.34 92.2033 32.908 92.2033 33.62C92.2033 34.444 91.9313 35.144 91.3873 35.72C90.8513 36.304 90.0633 36.748 89.0233 37.052C87.9833 37.356 86.7233 37.508 85.2433 37.508C83.0593 37.508 81.3673 37.192 80.1673 36.56C78.9753 35.936 78.3793 35.1 78.3793 34.052C78.3793 33.756 78.4113 33.488 78.4753 33.248C78.5473 33.016 78.6353 32.816 78.7393 32.648L82.1233 33.14C82.0833 33.196 82.0393 33.28 81.9913 33.392C81.9513 33.512 81.9313 33.66 81.9313 33.836C81.9313 34.26 82.2473 34.576 82.8793 34.784C83.5193 34.992 84.3433 35.096 85.3513 35.096C86.0633 35.096 86.6713 35.044 87.1753 34.94C87.6873 34.844 88.0753 34.7 88.3393 34.508C88.6113 34.316 88.7473 34.096 88.7473 33.848C88.7473 33.488 88.5713 33.252 88.2193 33.14C87.8753 33.028 87.4753 32.948 87.0193 32.9L82.1953 32.408C81.3073 32.32 80.5713 32.064 79.9873 31.64C79.4033 31.216 79.1113 30.644 79.1113 29.924C79.1113 29.476 79.2353 29.068 79.4833 28.7C79.7313 28.324 80.0153 28.016 80.3353 27.776C80.6553 27.528 80.9233 27.372 81.1393 27.308L83.0353 28.268C82.8833 28.292 82.7033 28.388 82.4953 28.556C82.2953 28.724 82.1953 28.92 82.1953 29.144C82.1953 29.368 82.3073 29.56 82.5313 29.72C82.7633 29.88 83.1833 29.988 83.7913 30.044L88.2793 30.488ZM89.5393 19.256H92.8153L91.4833 24.152C91.2353 25.08 90.8673 25.908 90.3793 26.636C89.8913 27.356 89.2393 27.924 88.4233 28.34C87.6153 28.756 86.5953 28.964 85.3633 28.964C84.0673 28.964 82.9433 28.764 81.9913 28.364C81.0473 27.964 80.3193 27.4 79.8073 26.672C79.2953 25.936 79.0393 25.068 79.0393 24.068C79.0393 23.068 79.2993 22.188 79.8193 21.428C80.3473 20.668 81.0633 20.076 81.9673 19.652C82.8793 19.228 83.9113 19.016 85.0633 19.016C85.9353 19.016 86.7313 19.16 87.4513 19.448C88.1793 19.728 88.7633 20.1 89.2033 20.564C89.6513 21.028 89.8833 21.54 89.8993 22.1L89.2153 22.28L89.5393 19.256ZM85.3393 26.24C85.8673 26.24 86.3313 26.156 86.7313 25.988C87.1313 25.812 87.4433 25.56 87.6673 25.232C87.8913 24.896 88.0033 24.492 88.0033 24.02C88.0033 23.556 87.8913 23.16 87.6673 22.832C87.4433 22.504 87.1313 22.252 86.7313 22.076C86.3313 21.9 85.8673 21.812 85.3393 21.812C84.8353 21.812 84.3793 21.904 83.9713 22.088C83.5713 22.264 83.2553 22.52 83.0233 22.856C82.7913 23.184 82.6753 23.584 82.6753 24.056C82.6753 24.52 82.7873 24.916 83.0113 25.244C83.2353 25.564 83.5473 25.812 83.9473 25.988C84.3473 26.156 84.8113 26.24 85.3393 26.24ZM95.6066 26.744V24.284H104.055L103.695 24.908C103.695 24.844 103.695 24.784 103.695 24.728C103.695 24.664 103.695 24.604 103.695 24.548C103.695 24.092 103.587 23.656 103.371 23.24C103.155 22.816 102.819 22.472 102.363 22.208C101.915 21.936 101.339 21.8 100.635 21.8C99.9306 21.8 99.3226 21.952 98.8106 22.256C98.3066 22.552 97.9186 22.98 97.6466 23.54C97.3826 24.1 97.2506 24.776 97.2506 25.568C97.2506 26.384 97.3786 27.084 97.6346 27.668C97.8986 28.244 98.2866 28.688 98.7986 29C99.3186 29.312 99.9626 29.468 100.731 29.468C101.227 29.468 101.655 29.424 102.015 29.336C102.375 29.24 102.667 29.12 102.891 28.976C103.123 28.832 103.299 28.672 103.419 28.496C103.539 28.32 103.611 28.148 103.635 27.98H107.307C107.259 28.516 107.075 29.044 106.755 29.564C106.435 30.076 105.991 30.54 105.423 30.956C104.855 31.364 104.163 31.688 103.347 31.928C102.539 32.168 101.615 32.288 100.575 32.288C99.1666 32.288 97.9386 32.008 96.8906 31.448C95.8426 30.88 95.0306 30.1 94.4546 29.108C93.8786 28.108 93.5906 26.956 93.5906 25.652C93.5906 24.332 93.8826 23.176 94.4666 22.184C95.0586 21.184 95.8786 20.408 96.9266 19.856C97.9826 19.296 99.2026 19.016 100.587 19.016C102.003 19.016 103.227 19.3 104.259 19.868C105.291 20.428 106.087 21.216 106.647 22.232C107.207 23.24 107.487 24.416 107.487 25.76C107.487 25.96 107.483 26.152 107.475 26.336C107.467 26.52 107.455 26.656 107.439 26.744H95.6066ZM118.787 32V26.588C118.787 26.284 118.787 26.008 118.787 25.76C118.787 25.512 118.787 25.288 118.787 25.088C118.787 24.56 118.719 24.08 118.583 23.648C118.447 23.208 118.203 22.856 117.851 22.592C117.499 22.328 116.991 22.196 116.327 22.196C115.751 22.196 115.251 22.328 114.827 22.592C114.411 22.856 114.091 23.224 113.867 23.696C113.643 24.168 113.531 24.712 113.531 25.328L112.499 24.584C112.499 23.48 112.739 22.512 113.219 21.68C113.699 20.848 114.347 20.196 115.163 19.724C115.987 19.252 116.899 19.016 117.899 19.016C118.947 19.016 119.807 19.228 120.479 19.652C121.159 20.068 121.663 20.652 121.991 21.404C122.327 22.148 122.495 23.02 122.495 24.02C122.495 24.428 122.495 24.884 122.495 25.388C122.495 25.892 122.495 26.408 122.495 26.936V32H118.787ZM109.811 32V19.256H113.531V32H109.811ZM131.7 32.288C130.3 32.288 129.072 32.008 128.016 31.448C126.96 30.88 126.14 30.092 125.556 29.084C124.98 28.076 124.692 26.912 124.692 25.592C124.692 24.256 124.98 23.1 125.556 22.124C126.14 21.14 126.96 20.376 128.016 19.832C129.072 19.288 130.3 19.016 131.7 19.016C132.748 19.016 133.676 19.172 134.484 19.484C135.292 19.788 135.968 20.192 136.512 20.696C137.056 21.2 137.468 21.752 137.748 22.352C138.028 22.952 138.168 23.548 138.168 24.14C138.168 24.148 138.168 24.164 138.168 24.188C138.168 24.204 138.168 24.22 138.168 24.236H134.484C134.484 24.188 134.48 24.144 134.472 24.104C134.472 24.056 134.464 24.008 134.448 23.96C134.384 23.624 134.244 23.308 134.028 23.012C133.812 22.716 133.508 22.476 133.116 22.292C132.732 22.1 132.252 22.004 131.676 22.004C131.06 22.004 130.508 22.14 130.02 22.412C129.54 22.684 129.16 23.088 128.88 23.624C128.6 24.152 128.46 24.808 128.46 25.592C128.46 26.36 128.6 27.024 128.88 27.584C129.16 28.136 129.54 28.56 130.02 28.856C130.508 29.152 131.06 29.3 131.676 29.3C132.308 29.3 132.824 29.204 133.224 29.012C133.624 28.812 133.924 28.548 134.124 28.22C134.324 27.884 134.444 27.516 134.484 27.116H138.168C138.168 27.708 138.028 28.312 137.748 28.928C137.476 29.536 137.068 30.092 136.524 30.596C135.988 31.1 135.316 31.508 134.508 31.82C133.7 32.132 132.764 32.288 131.7 32.288ZM140.938 37.508C140.538 37.508 140.178 37.492 139.858 37.46C139.546 37.436 139.35 37.408 139.27 37.376V34.556C139.374 34.604 139.554 34.64 139.81 34.664C140.074 34.696 140.354 34.712 140.65 34.712C141.042 34.712 141.394 34.632 141.706 34.472C142.026 34.32 142.298 34.1 142.522 33.812C142.754 33.532 142.934 33.2 143.062 32.816L143.278 32.168L138.886 19.256H142.762L145.534 29.708H145.102L147.766 19.256H151.594L147.214 32.636C146.886 33.644 146.482 34.512 146.002 35.24C145.522 35.968 144.882 36.528 144.082 36.92C143.282 37.312 142.234 37.508 140.938 37.508Z" fill="white"/>
<path d="M4.11357 17.5385L24 3.09017L43.8864 17.5385L36.2905 40.9164H11.7095L4.11357 17.5385Z" stroke="#EF6D58" stroke-width="5"/>
<path d="M23.5 14L32.535 20.5643L29.084 31.1857H17.916L14.465 20.5643L23.5 14Z" fill="#EF6D58"/>
</g>
<defs>
<clipPath id="clip0_0_4">
<rect width="152" height="48" fill="white"/>
</clipPath>
</defs>
</svg>
