<svg width="148" height="146" viewBox="0 0 148 146" fill="none" xmlns="http://www.w3.org/2000/svg">
<path d="M74.8915 110.547L74 108.793L73.1085 110.547L57.3472 141.563L57.8052 106.775L57.8311 104.807L56.2264 105.946L27.8564 126.085L44.4289 95.4947L45.3662 93.7645L43.416 94.0274L8.93666 98.6753L37.827 79.2902L39.4611 78.1938L37.612 77.5202L4.92211 65.6124L39.5119 61.8738L41.4683 61.6624L40.1441 60.2067L16.7325 34.4711L49.0976 47.2354L50.9282 47.9573L50.4322 46.053L41.6621 12.3853L64.3881 38.7284L65.6736 40.2184L66.1193 38.3017L74 4.41474L81.8807 38.3017L82.3264 40.2184L83.6119 38.7284L106.338 12.3853L97.5678 46.053L97.0718 47.9573L98.9024 47.2354L131.268 34.4711L107.856 60.2067L106.532 61.6624L108.488 61.8738L143.078 65.6124L110.388 77.5202L108.539 78.1938L110.173 79.2902L139.063 98.6753L104.584 94.0274L102.634 93.7645L103.571 95.4947L120.144 126.085L91.7736 105.946L90.1689 104.807L90.1948 106.775L90.6528 141.563L74.8915 110.547Z" stroke="#6A6C8E" stroke-width="2"/>
</svg>
