<svg width="16" height="14" viewBox="0 0 16 14" fill="none" xmlns="http://www.w3.org/2000/svg">
<path d="M16 1.54C15.412 1.80133 14.7787 1.97733 14.1147 2.05733C14.7933 1.65067 15.312 1.008 15.5587 0.241333C14.924 0.617333 14.2213 0.890667 13.4733 1.03733C12.876 0.398667 12.0213 0 11.0787 0C8.95867 0 7.40133 1.97733 7.88 4.03067C5.15333 3.89333 2.73333 2.58667 1.11467 0.601333C0.254667 2.076 0.669333 4.00667 2.13067 4.984C1.59333 4.96667 1.088 4.81867 0.645333 4.57333C0.609333 6.09333 1.7 7.516 3.27867 7.83333C2.81733 7.95867 2.31067 7.988 1.796 7.88933C2.21333 9.19333 3.428 10.1413 4.86267 10.168C3.48 11.2507 1.74267 11.7347 0 11.5293C1.45333 12.4613 3.17733 13.004 5.03067 13.004C11.1267 13.004 14.5693 7.856 14.3613 3.23867C15.004 2.77733 15.56 2.19867 16 1.54Z" fill="white"/>
</svg>
